<svg width="59" height="19" viewBox="0 0 59 19" fill="none" xmlns="http://www.w3.org/2000/svg">
<path d="M1.632 18V14.76L6.768 9.408C7.392 8.768 7.84 8.208 8.112 7.728C8.384 7.248 8.52 6.76 8.52 6.264C8.52 5.656 8.312 5.2 7.896 4.896C7.496 4.592 6.912 4.44 6.144 4.44C5.504 4.44 4.848 4.56 4.176 4.8C3.52 5.024 2.856 5.392 2.184 5.904L0.816 2.688C1.568 2.112 2.472 1.656 3.528 1.32C4.584 0.983999 5.672 0.816 6.792 0.816C8.76 0.816 10.256 1.24 11.28 2.088C12.32 2.936 12.84 4.16 12.84 5.76C12.84 6.784 12.6 7.768 12.12 8.712C11.656 9.64 10.88 10.632 9.792 11.688L5.856 15.528V14.4H13.464V18H1.632ZM21.5906 18.264C19.5106 18.264 17.9106 17.504 16.7906 15.984C15.6866 14.448 15.1346 12.28 15.1346 9.48C15.1346 6.648 15.6866 4.496 16.7906 3.024C17.9106 1.552 19.5106 0.816 21.5906 0.816C23.6866 0.816 25.2866 1.552 26.3906 3.024C27.4946 4.496 28.0466 6.64 28.0466 9.456C28.0466 12.272 27.4866 14.448 26.3666 15.984C25.2626 17.504 23.6706 18.264 21.5906 18.264ZM21.5906 14.736C22.3586 14.736 22.9266 14.32 23.2946 13.488C23.6786 12.656 23.8706 11.32 23.8706 9.48C23.8706 7.624 23.6786 6.304 23.2946 5.52C22.9266 4.72 22.3586 4.32 21.5906 4.32C20.8226 4.32 20.2466 4.72 19.8626 5.52C19.4946 6.304 19.3106 7.616 19.3106 9.456C19.3106 11.312 19.4946 12.656 19.8626 13.488C20.2466 14.32 20.8226 14.736 21.5906 14.736ZM30.3413 18V1.08H34.7812V8.328H34.8293L41.3093 1.08H46.4933L38.2853 9.984V8.232L46.9493 18H41.5973L34.8293 10.368H34.7812V18H30.3413ZM51.3917 17.04V12.528H46.9997V9.696H51.3917V5.304H54.3677V9.696H58.7597V12.528H54.3677V17.04H51.3917Z" fill="white"/>
</svg>
