<svg width="59" height="19" viewBox="0 0 59 19" fill="none" xmlns="http://www.w3.org/2000/svg">
<path d="M6.72 18.264C5.52 18.264 4.36 18.104 3.24 17.784C2.136 17.448 1.248 17 0.576 16.44L1.92 13.176C2.624 13.672 3.368 14.04 4.152 14.28C4.936 14.52 5.744 14.64 6.576 14.64C7.44 14.64 8.088 14.496 8.52 14.208C8.952 13.904 9.168 13.456 9.168 12.864C9.168 12.304 8.968 11.888 8.568 11.616C8.184 11.344 7.608 11.208 6.84 11.208H3.864V7.752H6.408C7.096 7.752 7.64 7.608 8.04 7.32C8.44 7.016 8.64 6.592 8.64 6.048C8.64 5.52 8.448 5.12 8.064 4.848C7.68 4.576 7.12 4.44 6.384 4.44C4.848 4.44 3.456 4.928 2.208 5.904L0.864 2.688C1.584 2.096 2.472 1.64 3.528 1.32C4.584 0.983999 5.68 0.816 6.816 0.816C8.704 0.816 10.184 1.232 11.256 2.064C12.328 2.88 12.864 4.016 12.864 5.472C12.864 6.448 12.584 7.288 12.024 7.992C11.48 8.696 10.728 9.16 9.768 9.384V9.048C10.888 9.224 11.768 9.696 12.408 10.464C13.048 11.216 13.368 12.16 13.368 13.296C13.368 14.832 12.776 16.048 11.592 16.944C10.408 17.824 8.784 18.264 6.72 18.264ZM22.2626 18.264C20.0226 18.264 18.2946 17.52 17.0786 16.032C15.8626 14.528 15.2546 12.416 15.2546 9.696C15.2546 7.824 15.5666 6.232 16.1906 4.92C16.8306 3.592 17.7266 2.576 18.8786 1.872C20.0466 1.168 21.4466 0.816 23.0786 0.816C24.0066 0.816 24.9186 0.96 25.8146 1.248C26.7266 1.536 27.5266 1.968 28.2146 2.544L26.8466 5.784C26.2706 5.32 25.6546 4.984 24.9986 4.776C24.3426 4.552 23.6866 4.44 23.0306 4.44C21.8306 4.44 20.9186 4.816 20.2946 5.568C19.6866 6.304 19.3826 7.416 19.3826 8.904V10.152H19.0226C19.1666 9.464 19.4306 8.88 19.8146 8.4C20.1986 7.904 20.6786 7.528 21.2546 7.272C21.8466 7.016 22.4946 6.888 23.1986 6.888C24.1426 6.888 24.9826 7.128 25.7186 7.608C26.4546 8.072 27.0386 8.72 27.4706 9.552C27.9186 10.384 28.1426 11.328 28.1426 12.384C28.1426 13.536 27.8866 14.552 27.3746 15.432C26.8786 16.312 26.1906 17.008 25.3106 17.52C24.4306 18.016 23.4146 18.264 22.2626 18.264ZM22.0226 14.904C22.4386 14.904 22.8066 14.808 23.1266 14.616C23.4466 14.424 23.6866 14.152 23.8466 13.8C24.0226 13.448 24.1106 13.04 24.1106 12.576C24.1106 12.096 24.0226 11.688 23.8466 11.352C23.6866 11 23.4466 10.728 23.1266 10.536C22.8066 10.328 22.4386 10.224 22.0226 10.224C21.6066 10.224 21.2386 10.328 20.9186 10.536C20.5986 10.728 20.3506 11 20.1746 11.352C20.0146 11.688 19.9346 12.096 19.9346 12.576C19.9346 13.04 20.0146 13.448 20.1746 13.8C20.3506 14.152 20.5986 14.424 20.9186 14.616C21.2386 14.808 21.6066 14.904 22.0226 14.904ZM30.3413 18V1.08H34.7812V8.328H34.8293L41.3093 1.08H46.4933L38.2853 9.984V8.232L46.9493 18H41.5973L34.8293 10.368H34.7812V18H30.3413ZM51.3917 17.04V12.528H46.9997V9.696H51.3917V5.304H54.3677V9.696H58.7597V12.528H54.3677V17.04H51.3917Z" fill="white"/>
</svg>
