<svg width="58" height="19" viewBox="0 0 58 19" fill="none" xmlns="http://www.w3.org/2000/svg">
<path d="M6.08 18.264C5.328 18.264 4.576 18.184 3.824 18.024C3.072 17.88 2.376 17.672 1.736 17.4C1.096 17.128 0.552 16.808 0.104 16.44L1.448 13.176C2.152 13.656 2.888 14.024 3.656 14.28C4.424 14.52 5.2 14.64 5.984 14.64C6.8 14.64 7.432 14.464 7.88 14.112C8.344 13.76 8.576 13.264 8.576 12.624C8.576 11.984 8.36 11.48 7.928 11.112C7.496 10.744 6.912 10.56 6.176 10.56C5.632 10.56 5.128 10.656 4.664 10.848C4.2 11.024 3.76 11.296 3.344 11.664H0.608V1.08H11.696V4.656H4.736V8.424H3.752C4.136 7.976 4.64 7.64 5.264 7.416C5.888 7.176 6.576 7.056 7.328 7.056C8.416 7.056 9.368 7.288 10.184 7.752C11 8.2 11.632 8.832 12.08 9.648C12.544 10.464 12.776 11.416 12.776 12.504C12.776 13.656 12.504 14.672 11.96 15.552C11.416 16.416 10.64 17.088 9.632 17.568C8.64 18.032 7.456 18.264 6.08 18.264ZM20.5906 18.264C18.5426 18.264 16.9266 17.832 15.7426 16.968C14.5746 16.104 13.9906 14.904 13.9906 13.368C13.9906 12.152 14.3506 11.152 15.0706 10.368C15.7906 9.568 16.7026 9.104 17.8066 8.976V9.672C16.8146 9.464 16.0066 8.984 15.3826 8.232C14.7586 7.464 14.4466 6.536 14.4466 5.448C14.4466 4.008 14.9986 2.88 16.1026 2.064C17.2066 1.232 18.7026 0.816 20.5906 0.816C22.4946 0.816 23.9986 1.232 25.1026 2.064C26.2066 2.88 26.7586 4.008 26.7586 5.448C26.7586 6.552 26.4546 7.488 25.8466 8.256C25.2386 9.024 24.4466 9.488 23.4706 9.648V8.976C24.5746 9.136 25.4706 9.616 26.1586 10.416C26.8466 11.2 27.1906 12.184 27.1906 13.368C27.1906 14.904 26.6066 16.104 25.4386 16.968C24.2706 17.832 22.6546 18.264 20.5906 18.264ZM20.5906 14.952C21.4546 14.952 22.1026 14.792 22.5346 14.472C22.9826 14.136 23.2066 13.656 23.2066 13.032C23.2066 12.392 22.9826 11.912 22.5346 11.592C22.1026 11.272 21.4546 11.112 20.5906 11.112C19.7426 11.112 19.0946 11.272 18.6466 11.592C18.1986 11.912 17.9746 12.392 17.9746 13.032C17.9746 13.656 18.1986 14.136 18.6466 14.472C19.0946 14.792 19.7426 14.952 20.5906 14.952ZM20.5906 7.776C21.2786 7.776 21.8066 7.616 22.1746 7.296C22.5586 6.96 22.7506 6.512 22.7506 5.952C22.7506 5.392 22.5586 4.952 22.1746 4.632C21.8066 4.296 21.2786 4.128 20.5906 4.128C19.9026 4.128 19.3666 4.296 18.9826 4.632C18.6146 4.952 18.4306 5.392 18.4306 5.952C18.4306 6.512 18.6146 6.96 18.9826 7.296C19.3666 7.616 19.9026 7.776 20.5906 7.776ZM29.3413 18V1.08H33.7812V8.328H33.8293L40.3093 1.08H45.4933L37.2853 9.984V8.232L45.9493 18H40.5973L33.8293 10.368H33.7812V18H29.3413ZM50.3917 17.04V12.528H45.9997V9.696H50.3917V5.304H53.3677V9.696H57.7597V12.528H53.3677V17.04H50.3917Z" fill="white"/>
</svg>
