<svg width="74" height="19" viewBox="0 0 74 19" fill="none" xmlns="http://www.w3.org/2000/svg">
<path d="M16.336 17.016C15.928 16.32 15.592 15.576 15.328 14.808L11.128 2.496C10.84 1.728 10.096 1.2 9.28 1.2H5.272C5.872 1.44 6.352 1.896 6.616 2.472C6.832 3.312 6.784 4.224 6.496 5.04L6.184 5.88V5.904L2.632 15.288C2.368 15.984 2.008 16.632 1.552 17.232C1.312 17.52 1.024 17.76 0.712 17.976H5.872C5.296 17.784 4.768 17.52 4.264 17.184C4 16.968 3.856 16.656 3.856 16.32C3.976 15.696 4.168 15.096 4.384 14.52L4.408 14.424L7.912 4.584L10 11.016L5.896 11.736L10.576 12.432C10.576 12.432 11.848 16.104 11.848 16.248C11.872 16.656 11.704 17.04 11.368 17.304C10.912 17.64 10.408 17.856 9.856 17.976H17.488C17.056 17.712 16.672 17.4 16.336 17.016ZM27.0348 6.456C26.5548 6.024 25.9308 5.808 25.3068 5.832C24.6108 5.832 23.9628 6.048 23.4348 6.48C22.8108 7.008 22.3068 7.68 21.9948 8.424V5.64C20.5548 6.384 19.0188 6.864 17.4348 7.08C17.7948 7.056 18.1788 7.152 18.4668 7.344C18.6828 7.68 18.7548 8.088 18.7068 8.472V15.312C18.7788 15.888 18.7068 16.464 18.4908 16.992C18.2748 17.4 17.9388 17.76 17.5308 18H23.4828C23.0748 17.76 22.7388 17.424 22.5228 16.992C22.3308 16.464 22.2588 15.888 22.2828 15.336V11.64C22.2828 10.608 22.4748 9.576 22.8588 8.616C23.2668 7.728 23.6748 7.344 24.1308 7.272C24.3948 7.248 24.6588 7.344 24.8268 7.512C25.2588 7.992 25.0668 8.616 25.2108 9.072C25.3548 9.432 25.6908 9.696 26.0988 9.72C26.5068 9.792 26.9148 9.648 27.2028 9.36C27.5388 9 27.7308 8.52 27.7068 8.04C27.7308 7.44 27.4908 6.864 27.0348 6.456ZM35.6811 15.48C35.2971 15.984 34.7931 16.368 34.3851 16.296C34.0971 16.2 33.8571 15.96 33.7611 15.648C33.6171 15.12 33.5451 14.568 33.5931 14.016V7.056L36.2811 6H33.5931V0.792C32.6331 3.528 30.6411 5.784 28.0251 7.056H30.0171V14.16C29.9211 15.288 30.1611 16.416 30.7131 17.4C31.2651 18.096 32.1291 18.456 33.0171 18.36C34.0731 18.432 35.0811 17.952 35.7051 17.136C36.4011 16.08 36.7371 14.832 36.6651 13.56V13.392C36.4251 14.136 36.1131 14.832 35.6811 15.48ZM39.9303 3.744C40.4823 3.768 40.9863 3.6 41.4183 3.288C41.7783 2.976 41.9703 2.52 41.9703 2.064C41.9703 1.584 41.7543 1.104 41.3943 0.816C40.9863 0.456 40.4823 0.287999 39.9543 0.311999C39.4263 0.287999 38.8983 0.456 38.5143 0.792C38.1543 1.104 37.9383 1.584 37.9383 2.064C37.9383 2.52 38.1303 2.976 38.4902 3.288C38.8983 3.6 39.4263 3.768 39.9303 3.744ZM38.1543 16.992C37.9383 17.4 37.6023 17.76 37.1943 18H43.2422C42.8343 17.76 42.4983 17.424 42.2823 16.992C42.0903 16.464 41.9943 15.888 42.0423 15.336V5.64C40.5063 6.408 38.8263 6.912 37.1223 7.08C37.4823 7.056 37.8423 7.152 38.1543 7.368C38.3703 7.704 38.4423 8.088 38.3943 8.472V15.336C38.4663 15.888 38.3703 16.464 38.1543 16.992ZM53.1402 12.072C52.1322 11.232 50.9562 10.608 49.6842 10.224C49.5882 10.176 49.4442 10.128 49.2522 10.056C47.6682 9.48 46.8522 8.856 46.8522 8.184C46.8522 7.752 47.0682 7.344 47.4042 7.104C47.8362 6.816 48.3642 6.672 48.8682 6.696C49.5642 6.696 50.2362 6.936 50.7642 7.392C51.4122 7.944 51.8922 8.64 52.2282 9.432L53.2362 5.784C52.9722 6 52.6842 6.192 52.3962 6.312C52.1322 6.408 51.8682 6.432 51.6042 6.408C51.5322 6.384 51.1722 6.264 50.4762 6.024C49.8282 5.784 49.1562 5.64 48.4842 5.64C47.4042 5.592 46.3482 5.952 45.5322 6.648C44.7882 7.32 44.3562 8.28 44.4042 9.288C44.3802 10.152 44.7162 10.992 45.3162 11.616C46.3002 12.432 47.4042 13.08 48.6282 13.464C48.7002 13.488 48.8442 13.536 49.0122 13.608C50.5962 14.208 51.3882 14.88 51.3882 15.624C51.3882 16.104 51.1722 16.536 50.8122 16.824C50.4042 17.16 49.9002 17.304 49.3962 17.304C48.4602 17.28 47.5482 16.992 46.7562 16.488C45.9882 15.792 45.3882 14.928 45.0522 13.944L43.9962 18.192C44.1882 17.976 44.4522 17.808 44.7402 17.688C45.0282 17.568 45.3642 17.544 45.6762 17.592C46.1322 17.664 46.5402 17.784 46.9482 17.952C47.9322 18.216 48.9402 18.36 49.9482 18.36C51.0522 18.432 52.1322 18.048 52.9482 17.304C53.7162 16.56 54.1242 15.528 54.0762 14.472C54.1242 13.56 53.7642 12.72 53.1402 12.072ZM61.978 15.48C61.594 15.984 61.09 16.368 60.682 16.296C60.394 16.2 60.154 15.96 60.058 15.648C59.914 15.12 59.842 14.568 59.89 14.016V7.056L62.578 6H59.89V0.792C58.93 3.528 56.938 5.784 54.322 7.056H56.314V14.16C56.218 15.288 56.458 16.416 57.01 17.4C57.562 18.096 58.426 18.456 59.314 18.36C60.37 18.432 61.378 17.952 62.002 17.136C62.698 16.08 63.034 14.832 62.962 13.56V13.392C62.722 14.136 62.41 14.832 61.978 15.48ZM72.9918 12.072C71.9838 11.232 70.8078 10.608 69.5358 10.224C69.4398 10.176 69.2958 10.128 69.1038 10.056C67.5198 9.48 66.7038 8.856 66.7038 8.184C66.7038 7.752 66.9198 7.344 67.2558 7.104C67.6878 6.816 68.2158 6.672 68.7198 6.696C69.4158 6.696 70.0878 6.936 70.6158 7.392C71.2638 7.944 71.7438 8.64 72.0798 9.432L73.0878 5.784C72.8238 6 72.5358 6.192 72.2478 6.312C71.9838 6.408 71.7198 6.432 71.4558 6.408C71.3838 6.384 71.0238 6.264 70.3278 6.024C69.6797 5.784 69.0078 5.64 68.3358 5.64C67.2558 5.592 66.1998 5.952 65.3838 6.648C64.6398 7.32 64.2078 8.28 64.2558 9.288C64.2318 10.152 64.5678 10.992 65.1678 11.616C66.1518 12.432 67.2558 13.08 68.4798 13.464C68.5518 13.488 68.6958 13.536 68.8638 13.608C70.4478 14.208 71.2398 14.88 71.2398 15.624C71.2398 16.104 71.0238 16.536 70.6638 16.824C70.2558 17.16 69.7518 17.304 69.2478 17.304C68.3118 17.28 67.3998 16.992 66.6078 16.488C65.8398 15.792 65.2398 14.928 64.9038 13.944L63.8478 18.192C64.0398 17.976 64.3038 17.808 64.5918 17.688C64.8798 17.568 65.2158 17.544 65.5278 17.592C65.9838 17.664 66.3918 17.784 66.7998 17.952C67.7838 18.216 68.7918 18.36 69.7998 18.36C70.9038 18.432 71.9838 18.048 72.7998 17.304C73.5678 16.56 73.9758 15.528 73.9278 14.472C73.9758 13.56 73.6158 12.72 72.9918 12.072Z" fill="#FFDBB0"/>
</svg>
