<svg width="103" height="19" viewBox="0 0 103 19" fill="none" xmlns="http://www.w3.org/2000/svg">
<path d="M16.336 17.016C15.928 16.32 15.592 15.576 15.328 14.808L11.128 2.496C10.84 1.728 10.096 1.2 9.28 1.2H5.272C5.872 1.44 6.352 1.896 6.616 2.472C6.832 3.312 6.784 4.224 6.496 5.04L6.184 5.88V5.904L2.632 15.288C2.368 15.984 2.008 16.632 1.552 17.232C1.312 17.52 1.024 17.76 0.712 17.976H5.872C5.296 17.784 4.768 17.52 4.264 17.184C4 16.968 3.856 16.656 3.856 16.32C3.976 15.696 4.168 15.096 4.384 14.52L4.408 14.424L7.912 4.584L10 11.016L5.896 11.736L10.576 12.432C10.576 12.432 11.848 16.104 11.848 16.248C11.872 16.656 11.704 17.04 11.368 17.304C10.912 17.64 10.408 17.856 9.856 17.976H17.488C17.056 17.712 16.672 17.4 16.336 17.016ZM27.0348 6.456C26.5548 6.024 25.9308 5.808 25.3068 5.832C24.6108 5.832 23.9628 6.048 23.4348 6.48C22.8108 7.008 22.3068 7.68 21.9948 8.424V5.64C20.5548 6.384 19.0188 6.864 17.4348 7.08C17.7948 7.056 18.1788 7.152 18.4668 7.344C18.6828 7.68 18.7548 8.088 18.7068 8.472V15.312C18.7788 15.888 18.7068 16.464 18.4908 16.992C18.2748 17.4 17.9388 17.76 17.5308 18H23.4828C23.0748 17.76 22.7388 17.424 22.5228 16.992C22.3308 16.464 22.2588 15.888 22.2828 15.336V11.64C22.2828 10.608 22.4748 9.576 22.8588 8.616C23.2668 7.728 23.6748 7.344 24.1308 7.272C24.3948 7.248 24.6588 7.344 24.8268 7.512C25.2588 7.992 25.0668 8.616 25.2108 9.072C25.3548 9.432 25.6908 9.696 26.0988 9.72C26.5068 9.792 26.9148 9.648 27.2028 9.36C27.5388 9 27.7308 8.52 27.7068 8.04C27.7308 7.44 27.4908 6.864 27.0348 6.456ZM35.6811 15.48C35.2971 15.984 34.7931 16.368 34.3851 16.296C34.0971 16.2 33.8571 15.96 33.7611 15.648C33.6171 15.12 33.5451 14.568 33.5931 14.016V7.056L36.2811 6H33.5931V0.792C32.6331 3.528 30.6411 5.784 28.0251 7.056H30.0171V14.16C29.9211 15.288 30.1611 16.416 30.7131 17.4C31.2651 18.096 32.1291 18.456 33.0171 18.36C34.0731 18.432 35.0811 17.952 35.7051 17.136C36.4011 16.08 36.7371 14.832 36.6651 13.56V13.392C36.4251 14.136 36.1131 14.832 35.6811 15.48ZM51.4709 6C51.8789 6.216 52.2149 6.528 52.4789 6.888C52.7189 7.224 52.8389 7.608 52.8629 8.016C52.8629 8.112 52.8389 8.232 52.8149 8.328C52.7909 8.448 52.7669 8.568 52.7189 8.688L50.7989 14.112L49.0229 8.208C48.9989 8.112 48.9989 8.04 48.9749 7.968C48.9749 7.896 48.9749 7.824 48.9749 7.776C48.9509 7.392 49.0469 7.032 49.2629 6.744C49.5269 6.432 49.8629 6.168 50.2469 6.024H44.2949C44.7269 6.312 45.0629 6.72 45.2789 7.176C45.5909 7.8 45.8309 8.472 45.9509 9.168L44.2469 14.256L42.1109 8.232C42.0869 8.16 42.0629 8.088 42.0629 8.016C42.0389 7.92 42.0389 7.848 42.0389 7.752C42.0629 7.416 42.1589 7.08 42.3269 6.792C42.5429 6.48 42.8549 6.216 43.1909 6.024H36.9029C37.3589 6.312 37.7669 6.696 38.1029 7.152C38.4869 7.728 38.7749 8.376 38.9909 9.048L42.3029 18.384H43.9349L46.5269 10.92L48.7109 18.384H50.4149L53.9909 8.832C54.1589 8.112 54.4949 7.44 54.9749 6.864C55.3109 6.528 55.6949 6.24 56.1269 6.024L51.4709 6ZM65.6566 7.416C64.5526 6.288 63.0166 5.64 61.4326 5.64C59.8486 5.64 58.3366 6.288 57.2086 7.416C56.1046 8.688 55.5046 10.32 55.5766 12.024C55.5766 12.912 55.7446 13.824 56.0566 14.664C56.3686 15.456 56.8486 16.176 57.4486 16.776C57.9766 17.28 58.5766 17.688 59.2486 17.976C60.6646 18.504 62.2006 18.504 63.6166 17.976C64.2886 17.688 64.8886 17.28 65.4166 16.776C66.0406 16.176 66.4966 15.456 66.8326 14.664C67.1446 13.824 67.3126 12.936 67.2886 12.024C67.3846 10.32 66.7846 8.688 65.6566 7.416ZM62.8726 16.2C62.7046 16.848 62.1046 17.28 61.4326 17.28C60.7606 17.28 60.1606 16.848 59.9926 16.2C59.6326 14.832 59.4886 13.416 59.5606 12.024C59.4886 10.608 59.6326 9.192 59.9926 7.824C60.1606 7.176 60.7606 6.72 61.4326 6.72C62.1046 6.72 62.7046 7.176 62.8726 7.824C63.2326 9.192 63.3766 10.608 63.2806 12.024C63.3766 13.416 63.2326 14.832 62.8726 16.2ZM77.5191 6.456C77.0391 6.024 76.4151 5.808 75.7911 5.832C75.0951 5.832 74.4471 6.048 73.9191 6.48C73.2951 7.008 72.7911 7.68 72.4791 8.424V5.64C71.0391 6.384 69.5031 6.864 67.9191 7.08C68.2791 7.056 68.6631 7.152 68.9511 7.344C69.1671 7.68 69.2391 8.088 69.1911 8.472V15.312C69.2631 15.888 69.1911 16.464 68.9751 16.992C68.7591 17.4 68.4231 17.76 68.0151 18H73.9671C73.5591 17.76 73.2231 17.424 73.0071 16.992C72.8151 16.464 72.7431 15.888 72.7671 15.336V11.64C72.7671 10.608 72.9591 9.576 73.3431 8.616C73.7511 7.728 74.1591 7.344 74.6151 7.272C74.8791 7.248 75.1431 7.344 75.3111 7.512C75.7431 7.992 75.5511 8.616 75.6951 9.072C75.8391 9.432 76.1751 9.696 76.5831 9.72C76.9911 9.792 77.3991 9.648 77.6871 9.36C78.0231 9 78.2151 8.52 78.1911 8.04C78.2151 7.44 77.9751 6.864 77.5191 6.456ZM85.4031 17.928H92.1711C91.6431 17.616 91.1631 17.232 90.7311 16.8C90.4191 16.416 90.1071 16.032 89.8671 15.624L86.2911 9.912L88.4511 8.04C88.8111 7.728 89.3631 7.248 89.6751 6.984C90.1791 6.552 90.7551 6.216 91.3551 5.928H85.0911C85.5711 6.12 85.9791 6.456 86.2431 6.864C86.4351 7.152 86.5551 7.464 86.5791 7.8C86.5551 7.944 86.5311 8.064 86.4591 8.184C86.3871 8.304 86.3151 8.424 86.1951 8.544L83.0751 11.4V0.24C81.6591 1.104 80.0751 1.632 78.4191 1.848C78.7791 1.8 79.1391 1.92 79.4031 2.136C79.6191 2.472 79.7151 2.856 79.6671 3.24V15.264C79.7151 15.864 79.6191 16.488 79.3791 17.064C79.1631 17.424 78.8751 17.712 78.5151 17.928H84.2271C83.8191 17.64 83.5071 17.256 83.2911 16.824C83.1471 16.32 83.0751 15.792 83.0751 15.264V12.648L83.7711 12.024L86.1711 15.792C86.2431 15.888 86.2911 15.984 86.3391 16.08C86.3631 16.152 86.3871 16.248 86.3871 16.32C86.4111 16.632 86.3391 16.968 86.1711 17.232C86.0031 17.544 85.7151 17.784 85.4031 17.928ZM101.82 12.072C100.812 11.232 99.6359 10.608 98.3639 10.224C98.2679 10.176 98.1239 10.128 97.9319 10.056C96.3479 9.48 95.5319 8.856 95.5319 8.184C95.5319 7.752 95.7479 7.344 96.0839 7.104C96.5159 6.816 97.0439 6.672 97.5479 6.696C98.2439 6.696 98.9159 6.936 99.4439 7.392C100.092 7.944 100.572 8.64 100.908 9.432L101.916 5.784C101.652 6 101.364 6.192 101.076 6.312C100.812 6.408 100.548 6.432 100.284 6.408C100.212 6.384 99.8519 6.264 99.1559 6.024C98.5079 5.784 97.8359 5.64 97.1639 5.64C96.0839 5.592 95.0279 5.952 94.2119 6.648C93.4679 7.32 93.0359 8.28 93.0839 9.288C93.0599 10.152 93.3959 10.992 93.9959 11.616C94.9799 12.432 96.0839 13.08 97.3079 13.464C97.3799 13.488 97.5239 13.536 97.6919 13.608C99.2759 14.208 100.068 14.88 100.068 15.624C100.068 16.104 99.8519 16.536 99.4919 16.824C99.0839 17.16 98.5799 17.304 98.0759 17.304C97.1399 17.28 96.2279 16.992 95.4359 16.488C94.6679 15.792 94.0679 14.928 93.7319 13.944L92.6759 18.192C92.8679 17.976 93.1319 17.808 93.4199 17.688C93.7079 17.568 94.0439 17.544 94.3559 17.592C94.8119 17.664 95.2199 17.784 95.6279 17.952C96.6119 18.216 97.6199 18.36 98.6279 18.36C99.7319 18.432 100.812 18.048 101.628 17.304C102.396 16.56 102.804 15.528 102.756 14.472C102.804 13.56 102.444 12.72 101.82 12.072Z" fill="#ACDEFB"/>
</svg>
