<svg width="95" height="20" viewBox="0 0 95 20" fill="none" xmlns="http://www.w3.org/2000/svg">
<path d="M16.336 17.016C15.928 16.32 15.592 15.576 15.328 14.808L11.128 2.496C10.84 1.728 10.096 1.2 9.28 1.2H5.272C5.872 1.44 6.352 1.896 6.616 2.472C6.832 3.312 6.784 4.224 6.496 5.04L6.184 5.88V5.904L2.632 15.288C2.368 15.984 2.008 16.632 1.552 17.232C1.312 17.52 1.024 17.76 0.712 17.976H5.872C5.296 17.784 4.768 17.52 4.264 17.184C4 16.968 3.856 16.656 3.856 16.32C3.976 15.696 4.168 15.096 4.384 14.52L4.408 14.424L7.912 4.584L10 11.016L5.896 11.736L10.576 12.432C10.576 12.432 11.848 16.104 11.848 16.248C11.872 16.656 11.704 17.04 11.368 17.304C10.912 17.64 10.408 17.856 9.856 17.976H17.488C17.056 17.712 16.672 17.4 16.336 17.016ZM29.8596 17.568C29.4996 17.592 29.1156 17.496 28.8036 17.28C28.6116 16.944 28.5156 16.56 28.5636 16.176V5.328C27.0036 6 25.3476 6.48 23.6916 6.792C24.0516 6.744 24.4356 6.84 24.7476 7.056C24.9396 7.392 25.0356 7.776 24.9876 8.16V12.624C25.0356 13.584 24.8436 14.544 24.4116 15.432C24.1236 16.032 23.4996 16.44 22.8276 16.44C22.4436 16.464 22.0596 16.272 21.8676 15.936C21.6276 15.336 21.5316 14.688 21.5796 14.04V5.328C20.0196 6.024 18.3876 6.528 16.7076 6.792C17.0916 6.744 17.4516 6.84 17.7636 7.056C17.9796 7.392 18.0756 7.776 18.0276 8.16V13.368C17.9316 14.688 18.1716 16.008 18.7476 17.208C19.2996 18 20.2116 18.456 21.1716 18.36C21.9636 18.36 22.7316 18.144 23.3796 17.736C24.1476 17.232 24.7956 16.584 25.3236 15.816V19.008C26.5236 18.12 29.8596 17.568 29.8596 17.568ZM37.5076 16.896C36.5476 16.896 35.6596 16.368 35.1796 15.528C34.6036 14.304 34.3636 12.96 34.4596 11.592C34.3636 10.392 34.6276 9.192 35.1796 8.112C35.5876 7.344 36.3796 6.84 37.2436 6.792C38.0836 6.744 38.9236 7.08 39.4756 7.728C41.0356 9.672 39.4276 10.944 39.4276 10.944C39.9316 10.968 40.4356 10.8 40.7956 10.44C41.1556 10.08 41.3476 9.6 41.3236 9.096C41.3236 8.088 40.8436 7.176 40.0276 6.624C39.0676 5.928 37.9156 5.592 36.7396 5.64C35.0356 5.568 33.3796 6.216 32.1796 7.416C31.0036 8.688 30.3796 10.368 30.4516 12.12C30.3796 13.776 30.9796 15.408 32.0836 16.632C33.1876 17.808 34.7236 18.456 36.3076 18.384C37.6036 18.48 38.8756 18.048 39.8596 17.232C40.5076 16.56 40.9396 15.72 41.0596 14.784C40.3396 16.08 38.9956 16.896 37.5076 16.896ZM49.6264 15.48C49.2424 15.984 48.7384 16.368 48.3304 16.296C48.0424 16.2 47.8024 15.96 47.7064 15.648C47.5624 15.12 47.4904 14.568 47.5384 14.016V7.056L50.2264 6H47.5384V0.792C46.5784 3.528 44.5864 5.784 41.9704 7.056H43.9624V14.16C43.8664 15.288 44.1064 16.416 44.6584 17.4C45.2104 18.096 46.0744 18.456 46.9624 18.36C48.0184 18.432 49.0264 17.952 49.6504 17.136C50.3464 16.08 50.6824 14.832 50.6104 13.56V13.392C50.3704 14.136 50.0584 14.832 49.6264 15.48ZM53.8756 3.744C54.4276 3.768 54.9316 3.6 55.3636 3.288C55.7236 2.976 55.9156 2.52 55.9156 2.064C55.9156 1.584 55.6996 1.104 55.3396 0.816C54.9316 0.456 54.4276 0.287999 53.8996 0.311999C53.3716 0.287999 52.8436 0.456 52.4596 0.792C52.0996 1.104 51.8836 1.584 51.8836 2.064C51.8836 2.52 52.0756 2.976 52.4356 3.288C52.8436 3.6 53.3716 3.768 53.8756 3.744ZM52.0996 16.992C51.8836 17.4 51.5476 17.76 51.1396 18H57.1876C56.7796 17.76 56.4436 17.424 56.2276 16.992C56.0356 16.464 55.9396 15.888 55.9876 15.336V5.64C54.4516 6.408 52.7716 6.912 51.0676 7.08C51.4276 7.056 51.7876 7.152 52.0996 7.368C52.3156 7.704 52.3876 8.088 52.3396 8.472V15.336C52.4116 15.888 52.3156 16.464 52.0996 16.992ZM67.9769 7.416C66.8729 6.288 65.3369 5.64 63.7529 5.64C62.1689 5.64 60.6569 6.288 59.5289 7.416C58.4249 8.688 57.8249 10.32 57.8969 12.024C57.8969 12.912 58.0649 13.824 58.3769 14.664C58.6889 15.456 59.1689 16.176 59.7689 16.776C60.2969 17.28 60.8969 17.688 61.5689 17.976C62.9849 18.504 64.5209 18.504 65.9369 17.976C66.6089 17.688 67.2089 17.28 67.7369 16.776C68.3609 16.176 68.8169 15.456 69.1529 14.664C69.4649 13.824 69.6329 12.936 69.6089 12.024C69.7049 10.32 69.1049 8.688 67.9769 7.416ZM65.1929 16.2C65.0249 16.848 64.4249 17.28 63.7529 17.28C63.0809 17.28 62.4809 16.848 62.3129 16.2C61.9529 14.832 61.8089 13.416 61.8809 12.024C61.8089 10.608 61.9529 9.192 62.3129 7.824C62.4809 7.176 63.0809 6.72 63.7529 6.72C64.4249 6.72 65.0249 7.176 65.1929 7.824C65.5529 9.192 65.6969 10.608 65.6009 12.024C65.6969 13.416 65.5529 14.832 65.1929 16.2ZM77.3434 18H83.2954C82.8874 17.76 82.5514 17.424 82.3594 16.992C82.1434 16.464 82.0714 15.888 82.1194 15.336V10.848C82.2154 9.504 81.9514 8.184 81.3754 6.984C80.8474 6.192 79.9114 5.736 78.9514 5.832C78.1834 5.832 77.4154 6.048 76.7434 6.456C75.9754 6.96 75.3274 7.608 74.8234 8.376V5.64C73.3594 6.336 71.8474 6.816 70.2634 7.08C70.6234 7.056 70.9834 7.176 71.2954 7.368C71.5114 7.704 71.5834 8.088 71.5354 8.472V15.312C71.6074 15.888 71.5354 16.464 71.3194 16.992C71.0794 17.4 70.7434 17.76 70.3594 18H76.2874C75.8794 17.76 75.5434 17.424 75.3514 16.992C75.1594 16.464 75.0634 15.888 75.1114 15.312V11.592C75.0634 10.608 75.2554 9.648 75.7114 8.784C75.9994 8.16 76.6234 7.776 77.2954 7.752C77.7034 7.728 78.0634 7.92 78.2554 8.256C78.4954 8.856 78.5914 9.504 78.5434 10.152V15.312C78.6154 15.888 78.5194 16.464 78.3034 16.992C78.0874 17.4 77.7514 17.76 77.3434 18ZM93.148 12.072C92.14 11.232 90.964 10.608 89.692 10.224C89.596 10.176 89.452 10.128 89.26 10.056C87.676 9.48 86.86 8.856 86.86 8.184C86.86 7.752 87.076 7.344 87.412 7.104C87.844 6.816 88.372 6.672 88.876 6.696C89.572 6.696 90.244 6.936 90.772 7.392C91.42 7.944 91.9 8.64 92.236 9.432L93.244 5.784C92.98 6 92.692 6.192 92.404 6.312C92.14 6.408 91.876 6.432 91.612 6.408C91.54 6.384 91.18 6.264 90.484 6.024C89.836 5.784 89.164 5.64 88.492 5.64C87.412 5.592 86.356 5.952 85.54 6.648C84.796 7.32 84.364 8.28 84.412 9.288C84.388 10.152 84.724 10.992 85.324 11.616C86.308 12.432 87.412 13.08 88.636 13.464C88.708 13.488 88.852 13.536 89.02 13.608C90.604 14.208 91.396 14.88 91.396 15.624C91.396 16.104 91.18 16.536 90.82 16.824C90.412 17.16 89.908 17.304 89.404 17.304C88.468 17.28 87.556 16.992 86.764 16.488C85.996 15.792 85.396 14.928 85.06 13.944L84.004 18.192C84.196 17.976 84.46 17.808 84.748 17.688C85.036 17.568 85.372 17.544 85.684 17.592C86.14 17.664 86.548 17.784 86.956 17.952C87.94 18.216 88.948 18.36 89.956 18.36C91.06 18.432 92.14 18.048 92.956 17.304C93.724 16.56 94.132 15.528 94.084 14.472C94.132 13.56 93.772 12.72 93.148 12.072Z" fill="#CA9DFC"/>
</svg>
